<svg width="91" height="35" viewBox="0 0 91 35" fill="none" xmlns="http://www.w3.org/2000/svg">
<path fill-rule="evenodd" clip-rule="evenodd" d="M29.1099 27.2137H11.7136C9.32162 27.2137 7.3645 25.156 7.3645 22.6411V19.5991H0.286133V8.28559C0.286133 3.88441 3.71107 0.283447 7.8971 0.283447H25.4024C29.5885 0.283447 33.0134 3.88441 33.0134 8.28559V19.5991H29.1535V8.31928C29.1535 6.11869 27.441 4.3182 25.348 4.3182H7.95153C5.85851 4.3182 4.14605 6.11869 4.14605 8.31928V15.5409H7.3645V12.2881C7.3645 9.77314 9.32161 7.71544 11.7136 7.71544H21.5859C23.9779 7.71544 25.935 9.77314 25.935 12.2881V19.5991H11.1693V22.0757C11.1693 22.7044 11.6586 23.2189 12.2566 23.2189H33.0134V26.6436C33.0134 31.0447 29.5885 34.6457 25.4024 34.6457H7.8971C3.71108 34.6457 0.355947 31.0011 0.316466 26.6001L0.286133 23.2189H4.14605V26.6099C4.14605 28.8105 5.85851 30.6109 7.95153 30.6109H25.348C27.2459 30.6109 28.8309 29.1305 29.1099 27.2137ZM22.1302 15.5409H11.1693V12.8535C11.1693 12.2247 11.6586 11.7103 12.2566 11.7103H21.043C21.641 11.7103 22.1302 12.2247 22.1302 12.8535V15.5409Z" fill="white"/>
<path d="M29.1099 27.2137H11.7136C9.32162 27.2137 7.3645 25.156 7.3645 22.6411V19.5991H0.286133V8.28559C0.286133 3.88441 3.71107 0.283447 7.8971 0.283447H25.4024C29.5885 0.283447 33.0134 3.88441 33.0134 8.28559V19.5991H29.1535V8.31928C29.1535 6.11869 27.441 4.3182 25.348 4.3182H7.95153C5.85851 4.3182 4.14605 6.11869 4.14605 8.31928V15.5409H7.3645V12.2881C7.3645 9.77314 9.32161 7.71544 11.7136 7.71544H21.5859C23.9779 7.71544 25.935 9.77314 25.935 12.2881V19.5991H11.1693V22.0757C11.1693 22.7044 11.6586 23.2189 12.2566 23.2189H33.0134V26.6436C33.0134 31.0447 29.5885 34.6457 25.4024 34.6457H7.8971C3.71108 34.6457 0.355947 31.0011 0.316466 26.6001L0.286133 23.2189H4.14605V26.6099C4.14605 28.8105 5.85851 30.6109 7.95153 30.6109H25.348C27.2459 30.6109 28.8309 29.1305 29.1099 27.2137ZM22.1302 15.5409H11.1693V12.8535C11.1693 12.2247 11.6586 11.7103 12.2566 11.7103H21.043C21.641 11.7103 22.1302 12.2247 22.1302 12.8535V15.5409Z" stroke="white" stroke-width="0.5669" stroke-miterlimit="22.9256"/>
<path d="M85.6313 11.293L87.1122 6.97093H89.4216L86.5899 13.6004L89.6343 20.5902H87.3282L85.6526 16.048L84.0286 20.5902H81.7192L84.6937 13.7592L81.8388 6.97093H84.1449L85.6313 11.293ZM76.4129 17.0302H78.3127L77.3596 10.7082L76.4129 17.0302ZM78.6019 18.9484H76.1256L75.8798 20.5902H73.69L75.7881 6.97093H78.9311L81.0392 20.5902H78.8494L78.6019 18.9484ZM70.777 8.9307V20.5902H68.647V8.9307H66.2213V6.97093H73.2027V8.9307H70.777ZM58.6307 18.6976C58.9265 18.6976 59.1856 18.6432 59.3983 18.5345C59.611 18.4258 59.7738 18.266 59.8868 18.0582C59.9964 17.8472 60.0496 17.5946 60.0496 17.2941V10.2511C60.0496 9.95694 59.9964 9.70437 59.8868 9.49656C59.7738 9.28556 59.611 9.12891 59.3983 9.01701C59.1856 8.90831 58.9265 8.85397 58.6307 8.85397C58.3317 8.85397 58.0758 8.90831 57.8665 9.01701C57.6538 9.12891 57.4943 9.28556 57.3846 9.49656C57.2717 9.70437 57.2185 9.95694 57.2185 10.2511V17.2941C57.2185 17.5946 57.2717 17.8472 57.3846 18.0582C57.4943 18.266 57.6538 18.4258 57.8665 18.5345C58.0758 18.6432 58.3317 18.6976 58.6307 18.6976ZM58.6307 20.7309C57.8831 20.7309 57.2418 20.5998 56.7068 20.3377C56.1718 20.0755 55.7631 19.6983 55.484 19.2027C55.2048 18.7104 55.0653 18.1157 55.0653 17.4156V10.136C55.0653 9.43902 55.2048 8.84118 55.484 8.34244C55.7631 7.84691 56.1718 7.46966 56.7068 7.2139C57.2418 6.95814 57.8831 6.83026 58.6307 6.83026C59.3817 6.83026 60.0263 6.95814 60.558 7.2139C61.0897 7.46966 61.495 7.84691 61.7775 8.34244C62.0599 8.84118 62.2028 9.43902 62.2028 10.136V17.4156C62.2028 18.1157 62.0599 18.7104 61.7775 19.2027C61.495 19.6983 61.0897 20.0755 60.558 20.3377C60.0263 20.5998 59.3817 20.7309 58.6307 20.7309ZM53.4615 13.6803V17.2749C53.4615 17.9974 53.3253 18.6177 53.0528 19.1324C52.7803 19.6503 52.3849 20.0435 51.8699 20.3185C51.3548 20.5934 50.7335 20.7309 50.0057 20.7309C49.2714 20.7309 48.6434 20.5998 48.1183 20.3377C47.59 20.0755 47.1913 19.695 46.9155 19.1995C46.6397 18.704 46.5001 18.1093 46.5001 17.4156V10.3342C46.5001 9.59887 46.6363 8.96586 46.9055 8.44155C47.1746 7.91724 47.5701 7.51761 48.0884 7.24267C48.6068 6.96774 49.2282 6.83026 49.9459 6.83026C50.6603 6.83026 51.2718 6.96453 51.7768 7.22988C52.2852 7.49524 52.6707 7.88207 52.9398 8.3968C53.209 8.90831 53.3452 9.51895 53.3452 10.2319V11.0919H51.1156V10.2319C51.1156 9.94414 51.0691 9.69798 50.9793 9.49656C50.8896 9.29196 50.7567 9.13849 50.5806 9.033C50.4045 8.9275 50.1951 8.87316 49.9459 8.87316C49.6801 8.87316 49.4508 8.9307 49.2514 9.04579C49.0521 9.16089 48.9025 9.33033 48.8029 9.54772C48.7032 9.76511 48.6533 10.0273 48.6533 10.3342V17.4156C48.6533 17.6777 48.7065 17.9047 48.8128 18.0933C48.9192 18.2852 49.0753 18.429 49.2814 18.5281C49.484 18.6305 49.7266 18.6784 50.0057 18.6784C50.2849 18.6784 50.5241 18.6272 50.7268 18.5218C50.9262 18.413 51.0824 18.2564 51.1887 18.0486C51.295 17.8376 51.3482 17.5882 51.3482 17.2941V15.6368H49.9559V13.6803H53.4615ZM39.5823 6.97093H40.7021H44.7527V8.94668H40.7021V12.8343H44.2643V14.81H40.7021V18.6145H44.7527V20.5902H40.7021H39.5823H38.5688V6.97093H39.5823Z" fill="white"/>
<path d="M85.6313 11.293L87.1122 6.97093H89.4216L86.5899 13.6004L89.6343 20.5902H87.3282L85.6526 16.048L84.0286 20.5902H81.7192L84.6937 13.7592L81.8388 6.97093H84.1449L85.6313 11.293ZM76.4129 17.0302H78.3127L77.3596 10.7082L76.4129 17.0302ZM78.6019 18.9484H76.1256L75.8798 20.5902H73.69L75.7881 6.97093H78.9311L81.0392 20.5902H78.8494L78.6019 18.9484ZM70.777 8.9307V20.5902H68.647V8.9307H66.2213V6.97093H73.2027V8.9307H70.777ZM58.6307 18.6976C58.9265 18.6976 59.1856 18.6432 59.3983 18.5345C59.611 18.4258 59.7738 18.266 59.8868 18.0582C59.9964 17.8472 60.0496 17.5946 60.0496 17.2941V10.2511C60.0496 9.95694 59.9964 9.70437 59.8868 9.49656C59.7738 9.28556 59.611 9.12891 59.3983 9.01701C59.1856 8.90831 58.9265 8.85397 58.6307 8.85397C58.3317 8.85397 58.0758 8.90831 57.8665 9.01701C57.6538 9.12891 57.4943 9.28556 57.3846 9.49656C57.2717 9.70437 57.2185 9.95694 57.2185 10.2511V17.2941C57.2185 17.5946 57.2717 17.8472 57.3846 18.0582C57.4943 18.266 57.6538 18.4258 57.8665 18.5345C58.0758 18.6432 58.3317 18.6976 58.6307 18.6976ZM58.6307 20.7309C57.8831 20.7309 57.2418 20.5998 56.7068 20.3377C56.1718 20.0755 55.7631 19.6983 55.484 19.2027C55.2048 18.7104 55.0653 18.1157 55.0653 17.4156V10.136C55.0653 9.43902 55.2048 8.84118 55.484 8.34244C55.7631 7.84691 56.1718 7.46966 56.7068 7.2139C57.2418 6.95814 57.8831 6.83026 58.6307 6.83026C59.3817 6.83026 60.0263 6.95814 60.558 7.2139C61.0897 7.46966 61.495 7.84691 61.7775 8.34244C62.0599 8.84118 62.2028 9.43902 62.2028 10.136V17.4156C62.2028 18.1157 62.0599 18.7104 61.7775 19.2027C61.495 19.6983 61.0897 20.0755 60.558 20.3377C60.0263 20.5998 59.3817 20.7309 58.6307 20.7309ZM53.4615 13.6803V17.2749C53.4615 17.9974 53.3253 18.6177 53.0528 19.1324C52.7803 19.6503 52.3849 20.0435 51.8699 20.3185C51.3548 20.5934 50.7335 20.7309 50.0057 20.7309C49.2714 20.7309 48.6434 20.5998 48.1183 20.3377C47.59 20.0755 47.1913 19.695 46.9155 19.1995C46.6397 18.704 46.5001 18.1093 46.5001 17.4156V10.3342C46.5001 9.59887 46.6363 8.96586 46.9055 8.44155C47.1746 7.91724 47.5701 7.51761 48.0884 7.24267C48.6068 6.96774 49.2282 6.83026 49.9459 6.83026C50.6603 6.83026 51.2718 6.96453 51.7768 7.22988C52.2852 7.49524 52.6707 7.88207 52.9398 8.3968C53.209 8.90831 53.3452 9.51895 53.3452 10.2319V11.0919H51.1156V10.2319C51.1156 9.94414 51.0691 9.69798 50.9793 9.49656C50.8896 9.29196 50.7567 9.13849 50.5806 9.033C50.4045 8.9275 50.1951 8.87316 49.9459 8.87316C49.6801 8.87316 49.4508 8.9307 49.2514 9.04579C49.0521 9.16089 48.9025 9.33033 48.8029 9.54772C48.7032 9.76511 48.6533 10.0273 48.6533 10.3342V17.4156C48.6533 17.6777 48.7065 17.9047 48.8128 18.0933C48.9192 18.2852 49.0753 18.429 49.2814 18.5281C49.484 18.6305 49.7266 18.6784 50.0057 18.6784C50.2849 18.6784 50.5241 18.6272 50.7268 18.5218C50.9262 18.413 51.0824 18.2564 51.1887 18.0486C51.295 17.8376 51.3482 17.5882 51.3482 17.2941V15.6368H49.9559V13.6803H53.4615ZM39.5823 6.97093H40.7021H44.7527V8.94668H40.7021V12.8343H44.2643V14.81H40.7021V18.6145H44.7527V20.5902H40.7021H39.5823H38.5688V6.97093H39.5823Z" stroke="white" stroke-width="0.1" stroke-miterlimit="22.9256"/>
<path fill-rule="evenodd" clip-rule="evenodd" d="M42.8468 26.5244L43.7718 27.445L43.5212 27.6951C42.8427 28.3726 41.9385 28.7612 40.9837 28.7612C40.1861 28.7612 39.4186 28.4831 38.8453 27.9127C38.2979 27.3683 38.0059 26.6318 38.0059 25.8568C38.0059 25.0868 38.2994 24.3538 38.8406 23.8111C39.406 23.2442 40.1635 22.9598 40.9544 22.9598C41.8257 22.9598 42.7399 23.28 43.3821 23.8852L43.6471 24.135L42.7178 25.0603L42.4751 24.8268C42.0905 24.4568 41.4976 24.2329 40.9691 24.2329C40.052 24.2329 39.3655 24.9378 39.3655 25.8642C39.3655 26.8056 40.0679 27.4881 40.9911 27.4881C41.599 27.4881 42.1832 27.2188 42.6041 26.7784L42.8468 26.5244ZM43.7234 25.8494C43.7234 25.0682 44.0417 24.3367 44.6 23.7996C45.1732 23.248 45.9355 22.9598 46.7233 22.9598C47.5109 22.9598 48.2747 23.2502 48.85 23.7984C49.4122 24.3342 49.7378 25.0653 49.7378 25.8494C49.7378 26.639 49.416 27.3771 48.8508 27.9191C48.2762 28.47 47.5121 28.7612 46.7233 28.7612C45.9343 28.7612 45.1718 28.4722 44.5992 27.9179C44.038 27.3746 43.7234 26.6362 43.7234 25.8494ZM51.717 25.5294V28.635H50.3866V23.086H51.4749L54.0151 26.1917V23.086H55.3455V28.635H54.2572L51.717 25.5294ZM61.0576 23.9731L60.2125 24.9606L59.9503 24.7222C59.7931 24.5793 59.5873 24.4673 59.3913 24.3898C59.0787 24.2661 58.7426 24.2106 58.4077 24.2106C58.208 24.2106 57.9713 24.2386 57.7866 24.3207C57.624 24.3929 57.5079 24.501 57.5079 24.6913C57.5079 24.7453 57.5192 24.7887 57.5592 24.8254C57.6089 24.871 57.6917 24.9002 57.7548 24.9195C57.8954 24.9625 58.047 24.9826 58.1928 24.9978C58.3788 25.0171 58.5656 25.0271 58.7522 25.0391C59.2628 25.072 59.7961 25.114 60.2719 25.3197C60.9176 25.5988 61.261 26.1162 61.261 26.8292C61.261 27.4641 60.9936 27.9934 60.463 28.3382C59.9732 28.6564 59.3478 28.7612 58.7742 28.7612C57.708 28.7612 56.8116 28.4027 56.0261 27.6744L55.7751 27.4417L56.6238 26.4688L56.8839 26.7131C57.4366 27.2322 58.0274 27.5104 58.7889 27.5104C59.1626 27.5104 59.9306 27.4277 59.9306 26.9109C59.9306 26.7086 59.8488 26.6107 59.6696 26.531C59.3968 26.4097 59.0033 26.3829 58.7069 26.3626C58.1821 26.3268 57.6021 26.2949 57.1084 26.0985C56.5067 25.8592 56.1775 25.4161 56.1775 24.7507C56.1775 23.4664 57.3199 22.9598 58.4297 22.9598C58.9142 22.9598 59.3979 23.0482 59.8516 23.2207C60.1782 23.3448 60.512 23.52 60.7824 23.7446L61.0576 23.9731ZM65.333 23.086H66.6633V26.562C66.6633 27.2036 66.4293 27.7868 65.9354 28.1994C65.4533 28.6021 64.8211 28.7612 64.2059 28.7612C62.8823 28.7612 61.7631 27.9924 61.7631 26.562V23.086H63.0862V26.562C63.0862 27.2188 63.623 27.4881 64.2059 27.4881C64.7933 27.4881 65.333 27.226 65.333 26.562V23.086ZM68.9797 27.3619H71.9997V28.635H67.6493V23.086H68.9797V27.3619ZM74.3454 24.3591V28.635H73.0151V24.3591H71.1532V23.086H76.2V24.3591H74.3454ZM77.9519 28.635H76.6215V23.086H77.9519V28.635ZM80.3635 25.5294V28.635H79.0332V23.086H80.1214L82.6616 26.1917V23.086H83.992V28.635H82.9038L80.3635 25.5294ZM88.8777 27.1813V26.5638H87.3237V25.2908H90.1494V27.8478L90.0148 27.9531C89.3622 28.4634 88.4638 28.7612 87.6407 28.7612C86.8488 28.7612 86.0845 28.4732 85.5106 27.9156C84.9537 27.3744 84.6408 26.639 84.6408 25.8568C84.6408 25.0761 84.9543 24.3423 85.5095 23.8019C86.0751 23.2513 86.8292 22.9598 87.6113 22.9598C88.4747 22.9598 89.3256 23.2968 89.9827 23.8593L90.2859 24.1188L89.3153 25.0035L89.0833 24.7847C88.7141 24.4366 88.1192 24.2329 87.6187 24.2329C86.704 24.2329 86.0005 24.9359 86.0005 25.8642C86.0005 26.2849 86.1512 26.6937 86.4416 26.9971C86.7691 27.3393 87.2133 27.4881 87.6773 27.4881C88.0584 27.4881 88.5398 27.389 88.8777 27.1813ZM45.0831 25.8494C45.0831 26.7759 45.8146 27.4881 46.7233 27.4881C47.6297 27.4881 48.3781 26.7778 48.3781 25.8494C48.3781 24.9255 47.6188 24.2329 46.7233 24.2329C45.8256 24.2329 45.0831 24.9276 45.0831 25.8494Z" fill="white"/>
<path d="M42.8468 26.5244L43.7718 27.445L43.5212 27.6951C42.8427 28.3726 41.9385 28.7612 40.9837 28.7612C40.1861 28.7612 39.4186 28.4831 38.8453 27.9127C38.2979 27.3683 38.0059 26.6318 38.0059 25.8568C38.0059 25.0868 38.2994 24.3538 38.8406 23.8111C39.406 23.2442 40.1635 22.9598 40.9544 22.9598C41.8257 22.9598 42.7399 23.28 43.3821 23.8852L43.6471 24.135L42.7178 25.0603L42.4751 24.8268C42.0905 24.4568 41.4976 24.2329 40.9691 24.2329C40.052 24.2329 39.3655 24.9378 39.3655 25.8642C39.3655 26.8056 40.0679 27.4881 40.9911 27.4881C41.599 27.4881 42.1832 27.2188 42.6041 26.7784L42.8468 26.5244ZM43.7234 25.8494C43.7234 25.0682 44.0417 24.3367 44.6 23.7996C45.1732 23.248 45.9355 22.9598 46.7233 22.9598C47.5109 22.9598 48.2747 23.2502 48.85 23.7984C49.4122 24.3342 49.7378 25.0653 49.7378 25.8494C49.7378 26.639 49.416 27.3771 48.8508 27.9191C48.2762 28.47 47.5121 28.7612 46.7233 28.7612C45.9343 28.7612 45.1718 28.4722 44.5992 27.9179C44.038 27.3746 43.7234 26.6362 43.7234 25.8494ZM51.717 25.5294V28.635H50.3866V23.086H51.4749L54.0151 26.1917V23.086H55.3455V28.635H54.2572L51.717 25.5294ZM61.0576 23.9731L60.2125 24.9606L59.9503 24.7222C59.7931 24.5793 59.5873 24.4673 59.3913 24.3898C59.0787 24.2661 58.7426 24.2106 58.4077 24.2106C58.208 24.2106 57.9713 24.2386 57.7866 24.3207C57.624 24.3929 57.5079 24.501 57.5079 24.6913C57.5079 24.7453 57.5192 24.7887 57.5592 24.8254C57.6089 24.871 57.6917 24.9002 57.7548 24.9195C57.8954 24.9625 58.047 24.9826 58.1928 24.9978C58.3788 25.0171 58.5656 25.0271 58.7522 25.0391C59.2628 25.072 59.7961 25.114 60.2719 25.3197C60.9176 25.5988 61.261 26.1162 61.261 26.8292C61.261 27.4641 60.9936 27.9934 60.463 28.3382C59.9732 28.6564 59.3478 28.7612 58.7742 28.7612C57.708 28.7612 56.8116 28.4027 56.0261 27.6744L55.7751 27.4417L56.6238 26.4688L56.8839 26.7131C57.4366 27.2322 58.0274 27.5104 58.7889 27.5104C59.1626 27.5104 59.9306 27.4277 59.9306 26.9109C59.9306 26.7086 59.8488 26.6107 59.6696 26.531C59.3968 26.4097 59.0033 26.3829 58.7069 26.3626C58.1821 26.3268 57.6021 26.2949 57.1084 26.0985C56.5067 25.8592 56.1775 25.4161 56.1775 24.7507C56.1775 23.4664 57.3199 22.9598 58.4297 22.9598C58.9142 22.9598 59.3979 23.0482 59.8516 23.2207C60.1782 23.3448 60.512 23.52 60.7824 23.7446L61.0576 23.9731ZM65.333 23.086H66.6633V26.562C66.6633 27.2036 66.4293 27.7868 65.9354 28.1994C65.4533 28.6021 64.8211 28.7612 64.2059 28.7612C62.8823 28.7612 61.7631 27.9924 61.7631 26.562V23.086H63.0862V26.562C63.0862 27.2188 63.623 27.4881 64.2059 27.4881C64.7933 27.4881 65.333 27.226 65.333 26.562V23.086ZM68.9797 27.3619H71.9997V28.635H67.6493V23.086H68.9797V27.3619ZM74.3454 24.3591V28.635H73.0151V24.3591H71.1532V23.086H76.2V24.3591H74.3454ZM77.9519 28.635H76.6215V23.086H77.9519V28.635ZM80.3635 25.5294V28.635H79.0332V23.086H80.1214L82.6616 26.1917V23.086H83.992V28.635H82.9038L80.3635 25.5294ZM88.8777 27.1813V26.5638H87.3237V25.2908H90.1494V27.8478L90.0148 27.9531C89.3622 28.4634 88.4638 28.7612 87.6407 28.7612C86.8488 28.7612 86.0845 28.4732 85.5106 27.9156C84.9537 27.3744 84.6408 26.639 84.6408 25.8568C84.6408 25.0761 84.9543 24.3423 85.5095 23.8019C86.0751 23.2513 86.8292 22.9598 87.6113 22.9598C88.4747 22.9598 89.3256 23.2968 89.9827 23.8593L90.2859 24.1188L89.3153 25.0035L89.0833 24.7847C88.7141 24.4366 88.1192 24.2329 87.6187 24.2329C86.704 24.2329 86.0005 24.9359 86.0005 25.8642C86.0005 26.2849 86.1512 26.6937 86.4416 26.9971C86.7691 27.3393 87.2133 27.4881 87.6773 27.4881C88.0584 27.4881 88.5398 27.389 88.8777 27.1813ZM45.0831 25.8494C45.0831 26.7759 45.8146 27.4881 46.7233 27.4881C47.6297 27.4881 48.3781 26.7778 48.3781 25.8494C48.3781 24.9255 47.6188 24.2329 46.7233 24.2329C45.8256 24.2329 45.0831 24.9276 45.0831 25.8494Z" stroke="white" stroke-width="0.1" stroke-miterlimit="22.9256"/>
</svg>
